<svg width="650" height="166" viewBox="0 0 650 166" fill="none" xmlns="http://www.w3.org/2000/svg">
<path d="M647.999 74.539C648.532 74.539 648.933 75.6135 649.2 77.7623C649.733 79.6426 650 81.7915 650 84.2089C650 86.6264 649.733 88.9096 649.2 91.0584C648.933 93.2073 648.532 94.2817 647.999 94.2817H591.558V150.689C591.558 151.227 590.357 151.764 587.955 152.301C585.553 152.57 583.018 152.704 580.35 152.704C574.746 152.704 571.943 152.301 571.943 151.495V94.2817H515.903C515.369 94.2817 514.835 93.2073 514.302 91.0584C514.035 88.9096 513.901 86.4921 513.901 83.806C513.901 81.3885 514.035 79.2397 514.302 77.3594C514.569 75.4791 514.969 74.539 515.503 74.539H571.943V18.1313C571.943 17.594 573.011 17.1911 575.146 16.9225C577.281 16.3853 579.549 16.1167 581.951 16.1167C584.353 16.1167 586.487 16.3853 588.355 16.9225C590.49 17.1911 591.558 17.594 591.558 18.1313V74.539H647.999Z" fill="#3E3F44"/>
<path d="M407.6 166C391.054 166 376.244 162.374 363.167 155.121C350.358 147.869 340.217 137.93 332.745 125.306C325.54 112.413 321.938 98.0421 321.938 82.1942C321.938 66.3463 325.54 52.2443 332.745 39.8884C340.217 27.2638 350.358 17.4595 363.167 10.4757C376.244 3.4919 391.054 0 407.6 0C424.145 0 438.822 3.62621 451.632 10.8786C464.441 17.8625 474.315 27.6667 481.253 40.2913C488.458 52.9159 492.061 67.1521 492.061 83C492.061 98.8479 488.458 113.084 481.253 125.709C474.048 138.333 464.041 148.272 451.231 155.524C438.422 162.508 423.878 166 407.6 166ZM411.603 157.539C423.878 157.539 433.085 151.495 439.223 139.408C445.627 127.32 448.83 110.398 448.83 88.6408C448.83 61.5113 444.56 41.3657 436.02 28.2039C427.748 15.0421 417.207 8.46116 404.397 8.46116C391.855 8.46116 382.115 14.7735 375.176 27.3981C368.238 39.754 364.769 56.5421 364.769 77.7621C364.769 101.668 369.038 121.008 377.578 135.782C386.117 150.286 397.459 157.539 411.603 157.539Z" fill="#3E3F44"/>
<path d="M216.836 166C200.291 166 185.48 162.374 172.404 155.121C159.594 147.869 149.454 137.93 141.982 125.306C134.776 112.413 131.174 98.0421 131.174 82.1942C131.174 66.3463 134.776 52.2443 141.982 39.8884C149.454 27.2638 159.594 17.4595 172.404 10.4757C185.48 3.4919 200.291 0 216.836 0C233.381 0 248.059 3.62621 260.868 10.8786C273.677 17.8625 283.551 27.6667 290.489 40.2913C297.695 52.9159 301.297 67.1521 301.297 83C301.297 98.8479 297.695 113.084 290.489 125.709C283.284 138.333 273.277 148.272 260.468 155.524C247.658 162.508 233.114 166 216.836 166ZM220.839 157.539C233.114 157.539 242.321 151.495 248.459 139.408C254.864 127.32 258.066 110.398 258.066 88.6408C258.066 61.5113 253.796 41.3657 245.257 28.2039C236.984 15.0421 226.443 8.46116 213.634 8.46116C201.091 8.46116 191.351 14.7735 184.412 27.3981C177.474 39.754 174.005 56.5421 174.005 77.7621C174.005 101.668 178.275 121.008 186.814 135.782C195.354 150.286 206.695 157.539 220.839 157.539Z" fill="#3E3F44"/>
<path d="M4.26976 160.762C3.46918 160.762 3.06889 159.957 3.06889 158.345C3.06889 156.733 3.46918 155.927 4.26976 155.927C14.6773 155.927 22.2828 155.256 27.0863 153.913C32.1567 152.57 35.6259 150.018 37.4939 146.258C39.3619 142.228 40.2959 136.185 40.2959 128.126V57.2139C40.2959 48.6184 39.3619 42.5747 37.4939 39.0828C35.8927 35.3223 32.8238 33.442 28.2872 33.442C24.0174 33.442 15.4779 35.9938 2.6686 41.0973H2.26831C1.46773 41.0973 0.800581 40.4258 0.26686 39.0828C-0.26686 37.7397 -2.38592e-07 36.7996 1.06744 36.2624L73.9203 1.61191C74.1872 1.34329 74.5875 1.20898 75.1212 1.20898C75.9218 1.20898 76.5889 1.6119 77.1226 2.41773C77.6564 2.95494 77.9232 3.62645 77.9232 4.43228V128.126C77.9232 136.453 78.7238 142.497 80.325 146.258C81.9261 150.018 85.1284 152.57 89.9319 153.913C94.7354 155.256 102.341 155.927 112.748 155.927C113.549 155.927 113.949 156.733 113.949 158.345C113.949 159.957 113.549 160.762 112.748 160.762C103.142 160.762 95.6694 160.628 90.3322 160.359L58.7093 159.957L27.0863 160.359C21.4823 160.628 13.8767 160.762 4.26976 160.762Z" fill="#3E3F44"/>
</svg>
