<svg width="242" height="136" viewBox="0 0 242 136" fill="none" xmlns="http://www.w3.org/2000/svg">
<path d="M241.001 38.7623C241.268 38.7623 241.467 39.2924 241.601 40.3526C241.867 41.2803 242 42.3404 242 43.5331C242 44.7258 241.867 45.8522 241.601 46.9124C241.467 47.9726 241.268 48.5027 241.001 48.5027H212.829V76.3321C212.829 76.5972 212.23 76.8622 211.031 77.1273C209.832 77.2598 208.567 77.326 207.235 77.326C204.438 77.326 203.039 77.1273 203.039 76.7297V48.5027H175.067C174.801 48.5027 174.535 47.9726 174.268 46.9124C174.135 45.8522 174.068 44.6596 174.068 43.3343C174.068 42.1416 174.135 41.0815 174.268 40.1538C174.401 39.2262 174.601 38.7623 174.868 38.7623H203.039V10.9329C203.039 10.6678 203.572 10.4691 204.638 10.3365C205.703 10.0715 206.835 9.93896 208.034 9.93896C209.233 9.93896 210.299 10.0715 211.231 10.3365C212.297 10.4691 212.829 10.6678 212.829 10.9329V38.7623H241.001Z" fill="#3E3F44"/>
<path d="M121.009 83.886C112.751 83.886 105.358 82.0969 98.8313 78.5189C92.4377 74.9408 87.3761 70.0375 83.6465 63.809C80.0501 57.448 78.252 50.3581 78.252 42.5393C78.252 34.7206 80.0501 27.7632 83.6465 21.6672C87.3761 15.4387 92.4377 10.6017 98.8313 7.15612C105.358 3.71057 112.751 1.98779 121.009 1.98779C129.267 1.98779 136.593 3.77683 142.987 7.35491C149.38 10.8005 154.309 15.6375 157.772 21.866C161.368 28.0945 163.167 35.1181 163.167 42.9369C163.167 50.7556 161.368 57.7793 157.772 64.0078C154.176 70.2363 149.181 75.1396 142.787 78.7176C136.394 82.1632 129.134 83.886 121.009 83.886ZM123.007 79.7115C129.134 79.7115 133.73 76.7298 136.793 70.7663C139.99 64.8029 141.588 56.4541 141.588 45.7198C141.588 32.3352 139.457 22.3961 135.195 15.9025C131.066 9.40899 125.804 6.16221 119.411 6.16221C113.15 6.16221 108.288 9.27646 104.825 15.505C101.362 21.6009 99.6305 29.8835 99.6305 40.3527C99.6305 52.1471 101.762 61.6887 106.024 68.9773C110.286 76.1335 115.947 79.7115 123.007 79.7115Z" fill="#3E3F44"/>
<path d="M38.781 55.2614C48.105 56.7191 55.098 60.0984 59.76 65.3993C64.5551 70.7001 66.9527 76.7961 66.9527 83.6872C66.9527 89.9157 64.6883 96.2767 60.1596 102.77C55.764 109.264 48.9042 115.36 39.5802 121.058C30.3895 126.889 18.9343 131.859 5.21476 135.967C4.68196 136.099 4.21576 135.834 3.81617 135.172C3.54977 134.509 3.68297 134.045 4.21576 133.78C18.7345 127.949 29.1907 120.661 35.5842 111.914C41.9778 103.3 45.1746 94.7527 45.1746 86.2714C45.1746 78.4526 43.1766 72.2241 39.1806 67.5859C35.1846 62.8151 29.7901 60.4297 22.9969 60.4297C20.3329 60.4297 17.6023 60.8273 14.8051 61.6224C14.4055 61.7549 14.0725 61.4236 13.8061 60.6285C13.5397 59.8334 13.6063 59.3695 14.0059 59.237C23.3299 56.8516 30.1231 53.2736 34.3854 48.5028C38.6478 43.5995 40.779 36.7747 40.779 28.0283C40.779 21.4022 39.78 16.3664 37.782 12.9208C35.784 9.34275 32.8537 7.55371 28.9909 7.55371C23.3965 7.55371 18.2683 9.47527 13.6063 13.3184C9.07755 17.1615 5.34796 22.7274 2.41757 30.0161C2.41757 30.1486 2.15117 30.2149 1.61837 30.2149C0.419578 30.2149 -0.11322 29.9498 0.0199799 29.4197L7.41255 0.397565C7.67895 0.132522 7.94535 0 8.21175 0C8.61135 0 9.01095 0.132522 9.41055 0.397565C9.81014 0.530085 9.94334 0.662604 9.81014 0.795123C9.54375 1.8553 9.41055 2.58417 9.41055 2.98173C9.41055 5.23459 10.5427 6.36102 12.8071 6.36102C14.4055 6.36102 16.6699 5.83094 19.6003 4.77076C22.7971 3.84311 25.5277 3.18051 27.7921 2.78295C30.0565 2.25286 32.6539 1.98782 35.5842 1.98782C43.5762 1.98782 49.77 4.24068 54.1656 8.74641C58.6944 13.1196 60.9587 18.4205 60.9587 24.649C60.9587 31.01 58.9608 37.0397 54.9648 42.7381C51.102 48.304 45.7074 52.4784 38.781 55.2614Z" fill="#3E3F44"/>
</svg>
