<svg width="164" height="118" viewBox="0 0 164 118" fill="none" xmlns="http://www.w3.org/2000/svg">
<path d="M163.001 72.3679C163.267 72.3679 163.467 72.904 163.6 73.9761C163.866 74.9142 164 75.9863 164 77.1925C164 78.3986 163.866 79.5377 163.6 80.6098C163.467 81.682 163.267 82.218 163.001 82.218H134.844V110.361C134.844 110.629 134.245 110.897 133.047 111.165C131.849 111.299 130.584 111.366 129.253 111.366C126.457 111.366 125.059 111.165 125.059 110.763V82.218H97.102C96.8357 82.218 96.5695 81.682 96.3032 80.6098C96.1701 79.5377 96.1035 78.3316 96.1035 76.9915C96.1035 75.7853 96.1701 74.7132 96.3032 73.7751C96.4363 72.837 96.636 72.3679 96.9023 72.3679H125.059V44.2248C125.059 43.9568 125.592 43.7558 126.657 43.6218C127.722 43.3537 128.853 43.2197 130.052 43.2197C131.25 43.2197 132.315 43.3537 133.247 43.6218C134.312 43.7558 134.844 43.9568 134.844 44.2248V72.3679H163.001Z" fill="#3E3F44"/>
<path d="M53.7178 44.6269C61.173 49.4514 66.7645 53.2709 70.4921 56.0852C74.3529 58.8995 77.7477 62.5179 80.6765 66.9404C83.6054 71.3629 85.0698 76.5224 85.0698 82.4191C85.0698 89.2538 83.0729 95.4185 79.079 100.913C75.0851 106.274 69.6934 110.495 62.9037 113.577C56.1141 116.526 48.7254 118 40.7377 118C32.7499 118 25.6274 116.526 19.3704 113.577C13.2464 110.495 8.45373 106.408 4.99236 101.315C1.66412 96.2226 0 90.661 0 84.6303C0 77.5275 2.32977 70.7598 6.9893 64.3271C11.6488 57.8944 18.0391 52.7348 26.16 48.8484C21.7667 45.498 18.3053 41.9466 15.7759 38.1942C13.3795 34.4418 12.1814 30.1533 12.1814 25.3288C12.1814 19.5661 13.7789 14.8086 16.974 11.0562C20.1691 7.3038 24.163 4.5565 28.9557 2.81431C33.8815 0.938107 38.8738 0 43.9328 0C49.9236 0 55.1822 1.07212 59.7086 3.21635C64.3682 5.22657 67.8961 7.83986 70.2924 11.0562C72.6888 14.2726 73.8869 17.5559 73.8869 20.9063C73.8869 25.0608 72.0897 29.3492 68.4952 33.7717C64.9007 38.1942 59.9749 41.8126 53.7178 44.6269ZM41.9358 4.22146C38.6076 4.22146 35.945 5.4946 33.948 8.04088C31.9511 10.4531 30.9526 13.5355 30.9526 17.2879C30.9526 22.3805 32.6167 26.87 35.945 30.7564C39.2732 34.5088 44.1325 38.5292 50.5227 42.8177C52.6528 39.3333 54.2503 36.117 55.3153 33.1687C56.3804 30.2203 56.9129 27.138 56.9129 23.9216C56.9129 18.293 55.4485 13.6025 52.5196 9.85008C49.5908 6.09767 46.0628 4.22146 41.9358 4.22146ZM46.1294 113.577C52.1202 113.577 56.9129 111.299 60.5074 106.743C64.1019 102.186 65.8991 96.7587 65.8991 90.46C65.8991 85.5014 64.6344 81.0789 62.105 77.1925C59.7086 73.3061 56.7132 69.9557 53.1187 67.1414C49.5242 64.3271 44.7315 61.0437 38.7407 57.2913L30.3536 51.8637C27.2916 55.2141 24.8952 59.3015 23.1646 64.1261C21.4339 68.8166 20.5685 73.8421 20.5685 79.2027C20.5685 85.2334 21.6336 90.929 23.7636 96.2896C26.0268 101.516 29.0888 105.738 32.9496 108.954C36.9435 112.036 41.3367 113.577 46.1294 113.577Z" fill="#3E3F44"/>
</svg>
