<svg width="141" height="25" viewBox="0 0 141 25" fill="none" xmlns="http://www.w3.org/2000/svg">
<path d="M0 6.24294H2.4447V19.2776H0V6.24294ZM0 0.955875H2.4447V3.57417H0V0.955875Z" fill="white"/>
<path d="M7.84229 19.2776V12.754C7.89533 11.0597 8.61 9.45254 9.83494 8.27273C11.0599 7.09293 12.6989 6.43317 14.4049 6.43317C16.1109 6.43317 17.7499 7.09293 18.9748 8.27273C20.1998 9.45254 20.9145 11.0597 20.9675 12.754V19.265H18.5228V12.754C18.5228 11.6663 18.0879 10.6232 17.3139 9.85417C16.5399 9.08509 15.49 8.65303 14.3954 8.65303C13.3007 8.65303 12.2509 9.08509 11.4768 9.85417C10.7028 10.6232 10.2679 11.6663 10.2679 12.754V19.265L7.84229 19.2776Z" fill="white"/>
<path d="M31.8385 19.2776V16.8486H39.7378C40.1202 16.8469 40.4865 16.6957 40.7574 16.4276C41.0284 16.1596 41.1822 15.7963 41.1856 15.4164C41.1881 15.2271 41.1524 15.0392 41.0805 14.8638C41.0086 14.6885 40.9019 14.5293 40.7669 14.3957C40.6318 14.2621 40.4712 14.1569 40.2944 14.0862C40.1176 14.0155 39.9283 13.9808 39.7378 13.9842H35.2929C34.2622 13.9842 33.2738 13.5774 32.545 12.8533C31.8162 12.1292 31.4067 11.1471 31.4067 10.123C31.4067 9.09896 31.8162 8.11684 32.545 7.39273C33.2738 6.66861 34.2622 6.26181 35.2929 6.26181H42.119V8.68453H35.2611C34.8798 8.69106 34.516 8.8449 34.2469 9.11344C33.9778 9.38198 33.8246 9.7441 33.8197 10.123C33.8158 10.3143 33.8516 10.5042 33.9248 10.6812C33.998 10.8581 34.107 11.0182 34.2451 11.1514C34.3759 11.2878 34.5337 11.3958 34.7085 11.4685C34.8834 11.5413 35.0716 11.5773 35.2611 11.5741H39.706C40.2164 11.5741 40.7217 11.674 41.1932 11.868C41.6647 12.0621 42.0931 12.3465 42.454 12.705C42.8148 13.0636 43.1011 13.4892 43.2964 13.9577C43.4917 14.4262 43.5922 14.9283 43.5922 15.4353C43.5922 15.9424 43.4917 16.4445 43.2964 16.9129C43.1011 17.3814 42.8148 17.8071 42.454 18.1656C42.0931 18.5241 41.6647 18.8086 41.1932 19.0026C40.7217 19.1966 40.2164 19.2965 39.706 19.2965L31.8385 19.2776Z" fill="white"/>
<path d="M55.6693 6.21134C56.7241 6.20108 57.7658 6.4437 58.706 6.91864C59.6463 7.39358 60.4575 8.08682 61.0707 8.93957C61.6839 9.79232 62.0811 10.7794 62.2285 11.8172C62.376 12.8549 62.2694 13.9127 61.9178 14.9008C61.5662 15.8889 60.98 16.7782 60.2088 17.4933C59.4376 18.2083 58.5043 18.728 57.4879 19.0083C56.4715 19.2886 55.4021 19.3212 54.3703 19.1034C53.3385 18.8856 52.3748 18.4238 51.5609 17.7571V25H49.1162V12.7539C49.1128 11.0232 49.8012 9.36186 51.0299 8.13507C52.2587 6.90827 53.9274 6.21636 55.6693 6.21134ZM55.6693 16.8233C56.2123 16.8293 56.751 16.7261 57.2529 16.5201C57.7548 16.3141 58.2097 16.0095 58.5903 15.6246C58.9775 15.2506 59.2837 14.8019 59.4901 14.3061C59.6964 13.8103 59.7986 13.2778 59.7904 12.7413C59.7946 12.2021 59.6909 11.6675 59.4854 11.1685C59.2799 10.6694 58.9766 10.216 58.5931 9.8344C58.2097 9.45283 57.7538 9.15079 57.2518 8.94581C56.7499 8.74082 56.212 8.637 55.6693 8.64036C55.1283 8.63129 54.5911 8.73241 54.091 8.93749C53.5908 9.14257 53.1382 9.44726 52.7611 9.83279C52.3737 10.2119 52.0677 10.6651 51.8614 11.165C51.6551 11.6649 51.5529 12.2011 51.5609 12.7413C51.5609 13.8239 51.9938 14.8622 52.7642 15.6277C53.5347 16.3933 54.5797 16.8233 55.6693 16.8233Z" fill="white"/>
<path d="M71.5759 19.2777H71.4616C70.9523 19.2873 70.4464 19.1925 69.9755 18.9993C69.5046 18.8061 69.0789 18.5186 68.7248 18.1546C68.3555 17.8002 68.063 17.3745 67.8653 16.9036C67.6677 16.4327 67.569 15.9266 67.5755 15.4165V0.955875H70.0202V15.4165C70.0235 15.7953 70.1764 16.1576 70.446 16.4255C70.7156 16.6934 71.0804 16.8453 71.4616 16.8486H71.5759V19.2777Z" fill="white"/>
<path d="M89.9206 19.2587H87.4759V17.8013C86.3246 18.7148 84.8953 19.2127 83.4221 19.2136C81.9488 19.2144 80.5189 18.7181 79.3666 17.806C78.2143 16.8938 77.4079 15.6199 77.0796 14.1929C76.7512 12.7659 76.9203 11.2704 77.5592 9.95139C78.1981 8.63236 79.2688 7.56801 80.5961 6.93267C81.9234 6.29733 83.4285 6.12867 84.8648 6.45433C86.3012 6.77998 87.5837 7.58064 88.5022 8.72515C89.4207 9.86967 89.9208 11.2902 89.9206 12.754V19.2587ZM83.3484 16.8486C83.892 16.8559 84.4315 16.754 84.9345 16.5491C85.4375 16.3442 85.8937 16.0405 86.2757 15.6562C86.6638 15.2815 86.9704 14.8318 87.1768 14.3348C87.3832 13.8379 87.485 13.3042 87.4759 12.7666C87.4784 12.2274 87.3733 11.693 87.1668 11.1943C86.9603 10.6956 86.6564 10.2425 86.2726 9.86123C85.8888 9.47992 85.4328 9.17795 84.9309 8.97274C84.429 8.76754 83.8912 8.66317 83.3484 8.66568C82.808 8.65791 82.2717 8.76027 81.7726 8.96645C81.2735 9.17262 80.8222 9.47823 80.4465 9.86441C80.0579 10.2416 79.7506 10.6934 79.5432 11.1923C79.3358 11.6913 79.2326 12.2269 79.2401 12.7666C79.2401 13.8492 79.6729 14.8875 80.4434 15.6531C81.2139 16.4186 82.2588 16.8486 83.3484 16.8486Z" fill="white"/>
<path d="M95.2737 19.2776V12.7539C95.2257 11.8698 95.3595 10.9852 95.667 10.1541C95.9745 9.32305 96.4492 8.56296 97.0621 7.92022C97.675 7.27748 98.4133 6.76556 99.232 6.41573C100.051 6.0659 100.932 5.88548 101.824 5.88548C102.715 5.88548 103.597 6.0659 104.415 6.41573C105.234 6.76556 105.972 7.27748 106.585 7.92022C107.198 8.56296 107.673 9.32305 107.98 10.1541C108.288 10.9852 108.422 11.8698 108.373 12.7539V19.265H105.935V12.7539C105.937 11.9434 105.696 11.1506 105.244 10.4761C104.791 9.80158 104.148 9.2756 103.394 8.96482C102.641 8.65403 101.811 8.57241 101.011 8.73029C100.211 8.88818 99.4762 9.27846 98.8995 9.85171C98.5129 10.2301 98.2073 10.6823 98.001 11.181C97.7948 11.6798 97.6922 12.2148 97.6993 12.7539V19.265L95.2737 19.2776Z" fill="white"/>
<path d="M116.393 14.0157C116.656 14.8339 117.166 15.5519 117.854 16.0725C118.562 16.6062 119.429 16.8903 120.317 16.8801C121.073 16.874 121.818 16.7062 122.502 16.388C123.173 16.1144 123.755 15.6626 124.184 15.082L126.204 16.4385C125.561 17.3471 124.684 18.0665 123.664 18.5205C122.621 19.0321 121.474 19.3018 120.311 19.3091C118.962 19.3052 117.648 18.8887 116.546 18.1162C115.444 17.3438 114.608 16.2529 114.152 14.9919C113.695 13.7309 113.641 12.3609 113.996 11.0682C114.351 9.77542 115.098 8.62266 116.136 7.76661C117.173 6.91055 118.451 6.39273 119.795 6.28352C121.139 6.17431 122.485 6.47902 123.649 7.15623C124.812 7.83344 125.738 8.85028 126.3 10.0685C126.861 11.2868 127.032 12.6474 126.788 13.9653L116.393 14.0157ZM120.317 8.69713C119.428 8.6892 118.561 8.97553 117.854 9.511C117.163 10.0363 116.652 10.7615 116.393 11.5867H124.248C123.991 10.7604 123.48 10.0346 122.788 9.511C122.083 8.96116 121.213 8.66331 120.317 8.66558V8.69713Z" fill="white"/>
<path d="M140.123 16.8486V19.2776H136.161C135.649 19.281 135.142 19.1834 134.669 18.9906C134.196 18.7977 133.767 18.5134 133.405 18.1542C133.044 17.795 132.758 17.368 132.563 16.898C132.369 16.428 132.271 15.9244 132.274 15.4164V0.955875H134.719V6.24294H137.748V8.66566H134.719V15.4164C134.716 15.6048 134.752 15.7917 134.825 15.9655C134.899 16.1392 135.007 16.296 135.145 16.4259C135.279 16.5635 135.44 16.672 135.618 16.7447C135.796 16.8175 135.987 16.8529 136.18 16.8486H140.123Z" fill="white"/>
<path d="M27.1013 8.72875H24.9487L27.5204 0.955875H29.9715L27.1013 8.72875Z" fill="white"/>
</svg>
