<svg width="141" height="25" viewBox="0 0 141 25" fill="none" xmlns="http://www.w3.org/2000/svg">
<path d="M0 5.32016H2.46V18.4365H0V5.32016ZM0 0H2.46V2.63468H0V0Z" fill="#3E3F44"/>
<path d="M7.8913 18.4365V11.872C7.94468 10.1671 8.66382 8.54985 9.89642 7.36266C11.129 6.17547 12.7783 5.51158 14.495 5.51158C16.2117 5.51158 17.8609 6.17547 19.0935 7.36266C20.3261 8.54985 21.0453 10.1671 21.0987 11.872V18.4238H18.6387V11.872C18.6387 10.7775 18.2011 9.72789 17.4222 8.95399C16.6433 8.1801 15.5869 7.74533 14.4854 7.74533C13.3839 7.74533 12.3275 8.1801 11.5486 8.95399C10.7697 9.72789 10.3321 10.7775 10.3321 11.872V18.4238L7.8913 18.4365Z" fill="#3E3F44"/>
<path d="M32.0377 18.4364V15.9922H39.9864C40.3712 15.9905 40.7398 15.8383 41.0125 15.5686C41.2851 15.2989 41.4399 14.9333 41.4433 14.551C41.4459 14.3605 41.4099 14.1714 41.3375 13.995C41.2652 13.8186 41.1578 13.6584 41.0219 13.524C40.8861 13.3896 40.7244 13.2836 40.5465 13.2125C40.3686 13.1414 40.1781 13.1065 39.9864 13.1099H35.5137C34.4766 13.1099 33.4819 12.7005 32.7486 11.9719C32.0152 11.2432 31.6032 10.255 31.6032 9.22452C31.6032 8.19405 32.0152 7.20579 32.7486 6.47714C33.4819 5.74849 34.4766 5.33915 35.5137 5.33915H42.3825V7.77703H35.4817C35.098 7.7836 34.732 7.9384 34.4612 8.20863C34.1904 8.47885 34.0362 8.84324 34.0313 9.22452C34.0274 9.41696 34.0634 9.60814 34.137 9.78617C34.2107 9.96419 34.3204 10.1253 34.4594 10.2594C34.591 10.3966 34.7497 10.5053 34.9257 10.5785C35.1017 10.6517 35.291 10.6879 35.4817 10.6847H39.9545C40.468 10.6847 40.9765 10.7852 41.4509 10.9805C41.9254 11.1757 42.3565 11.4619 42.7196 11.8227C43.0827 12.1835 43.3707 12.6118 43.5673 13.0832C43.7638 13.5546 43.8649 14.0598 43.8649 14.5701C43.8649 15.0803 43.7638 15.5855 43.5673 16.0569C43.3707 16.5283 43.0827 16.9567 42.7196 17.3175C42.3565 17.6782 41.9254 17.9644 41.4509 18.1597C40.9765 18.3549 40.468 18.4554 39.9545 18.4554L32.0377 18.4364Z" fill="#3E3F44"/>
<path d="M56.018 5.28836C57.0793 5.27804 58.1276 5.52218 59.0737 6.00009C60.0199 6.478 60.8361 7.17558 61.4532 8.03367C62.0702 8.89176 62.4699 9.88505 62.6183 10.9293C62.7667 11.9735 62.6594 13.038 62.3056 14.0322C61.9518 15.0265 61.3619 15.9214 60.5859 16.6409C59.8099 17.3604 58.8707 17.8834 57.8479 18.1654C56.8252 18.4475 55.7491 18.4803 54.7108 18.2611C53.6726 18.042 52.7029 17.5772 51.8839 16.9064V24.1946H49.4239V11.8719C49.4205 10.1303 50.1131 8.4586 51.3496 7.22413C52.586 5.98966 54.2651 5.29341 56.018 5.28836ZM56.018 15.9668C56.5644 15.9727 57.1064 15.869 57.6115 15.6617C58.1166 15.4544 58.5743 15.1479 58.9572 14.7605C59.3469 14.3842 59.655 13.9327 59.8627 13.4338C60.0703 12.9349 60.1732 12.3991 60.1648 11.8592C60.1691 11.3166 60.0648 10.7787 59.858 10.2765C59.6511 9.77437 59.346 9.31805 58.9601 8.9341C58.5743 8.55015 58.1155 8.24621 57.6104 8.03994C57.1053 7.83368 56.564 7.7292 56.018 7.73259C55.4736 7.72346 54.9331 7.82521 54.4298 8.03157C53.9265 8.23794 53.471 8.54454 53.0915 8.93248C52.7018 9.314 52.3938 9.77002 52.1862 10.273C51.9787 10.776 51.8758 11.3156 51.8839 11.8592C51.8839 12.9486 52.3194 13.9934 53.0947 14.7637C53.87 15.534 54.9216 15.9668 56.018 15.9668Z" fill="#3E3F44"/>
<path d="M72.0238 18.4365H71.9087C71.3962 18.4462 70.8872 18.3508 70.4133 18.1564C69.9395 17.962 69.5111 17.6726 69.1548 17.3064C68.7832 16.9498 68.4888 16.5214 68.2899 16.0475C68.091 15.5737 67.9918 15.0644 67.9983 14.5511V0H70.4583V14.5511C70.4616 14.9323 70.6155 15.2969 70.8868 15.5665C71.1581 15.836 71.5251 15.9889 71.9087 15.9922H72.0238V18.4365Z" fill="#3E3F44"/>
<path d="M90.4836 18.4174H88.0235V16.9509C86.8651 17.8701 85.4269 18.3711 83.9444 18.372C82.4619 18.3728 81.023 17.8734 79.8635 16.9556C78.704 16.0377 77.8926 14.7559 77.5622 13.3199C77.2318 11.884 77.4019 10.3791 78.0448 9.05183C78.6877 7.72454 79.7652 6.65353 81.1007 6.01421C82.4363 5.37489 83.9508 5.20518 85.3962 5.53287C86.8415 5.86056 88.132 6.66623 89.0563 7.81791C89.9805 8.96959 90.4838 10.399 90.4836 11.872V18.4174ZM83.8703 15.9923C84.4173 15.9995 84.9601 15.897 85.4663 15.6908C85.9724 15.4846 86.4315 15.1791 86.8159 14.7924C87.2064 14.4153 87.5149 13.9628 87.7226 13.4627C87.9303 12.9626 88.0327 12.4256 88.0235 11.8847C88.0261 11.3421 87.9204 10.8043 87.7126 10.3025C87.5047 9.80071 87.1989 9.34479 86.8127 8.9611C86.4266 8.5774 85.9677 8.27354 85.4627 8.06705C84.9576 7.86056 84.4164 7.75554 83.8703 7.75806C83.3264 7.75025 82.7868 7.85325 82.2845 8.06071C81.7823 8.26818 81.3282 8.5757 80.9502 8.9643C80.5592 9.34387 80.2499 9.7985 80.0412 10.3005C79.8325 10.8026 79.7287 11.3416 79.7362 11.8847C79.7362 12.9741 80.1718 14.0189 80.947 14.7892C81.7223 15.5595 82.7739 15.9923 83.8703 15.9923Z" fill="#3E3F44"/>
<path d="M95.8699 18.4364V11.8719C95.8216 10.9822 95.9563 10.0921 96.2657 9.25582C96.5751 8.41955 97.0527 7.6547 97.6695 7.00794C98.2863 6.36117 99.0292 5.84605 99.853 5.49403C100.677 5.14201 101.564 4.96046 102.461 4.96046C103.358 4.96046 104.245 5.14201 105.069 5.49403C105.892 5.84605 106.635 6.36117 107.252 7.00794C107.869 7.6547 108.347 8.41955 108.656 9.25582C108.965 10.0921 109.1 10.9822 109.052 11.8719V18.4237H106.598V11.8719C106.6 11.0563 106.357 10.2586 105.902 9.57983C105.447 8.90107 104.799 8.37181 104.041 8.05907C103.283 7.74634 102.449 7.66421 101.643 7.82308C100.838 7.98195 100.099 8.37468 99.5184 8.95152C99.1294 9.3323 98.8219 9.78729 98.6143 10.2891C98.4068 10.791 98.3035 11.3294 98.3107 11.8719V18.4237L95.8699 18.4364Z" fill="#3E3F44"/>
<path d="M117.122 13.1416C117.387 13.9649 117.9 14.6874 118.591 15.2113C119.304 15.7483 120.176 16.0342 121.071 16.0239C121.831 16.0178 122.58 15.8489 123.269 15.5287C123.944 15.2534 124.53 14.7987 124.962 14.2145L126.994 15.5795C126.347 16.4938 125.464 17.2177 124.438 17.6745C123.388 18.1894 122.235 18.4608 121.064 18.4681C119.707 18.4641 118.384 18.045 117.275 17.2678C116.166 16.4905 115.325 15.3928 114.866 14.1239C114.407 12.855 114.353 11.4764 114.71 10.1756C115.067 8.87475 115.819 7.71478 116.863 6.85337C117.907 5.99195 119.193 5.47089 120.545 5.36099C121.898 5.2511 123.252 5.55772 124.423 6.23916C125.594 6.92061 126.525 7.94382 127.09 9.16971C127.656 10.3956 127.827 11.7647 127.582 13.0908L117.122 13.1416ZM121.071 7.78971C120.176 7.78173 119.303 8.06985 118.591 8.60868C117.896 9.1373 117.383 9.86698 117.122 10.6974H125.026C124.767 9.86586 124.253 9.13553 123.556 8.60868C122.848 8.0554 121.972 7.75568 121.071 7.75796V7.78971Z" fill="#3E3F44"/>
<path d="M141 15.9922V18.4365H137.013C136.498 18.4398 135.988 18.3416 135.512 18.1476C135.036 17.9535 134.604 17.6674 134.24 17.306C133.876 16.9445 133.588 16.5149 133.393 16.0419C133.198 15.569 133.099 15.0623 133.102 14.5511V0H135.562V5.32016H138.61V7.75804H135.562V14.5511C135.559 14.7406 135.596 14.9287 135.669 15.1036C135.743 15.2784 135.852 15.4361 135.991 15.5669C136.125 15.7053 136.287 15.8145 136.467 15.8877C136.646 15.9609 136.838 15.9965 137.032 15.9922H141Z" fill="#3E3F44"/>
<path d="M27.2709 7.82153H25.1048L27.6926 0H30.159L27.2709 7.82153Z" fill="#3E3F44"/>
</svg>
