<svg width="283" height="275" viewBox="0 0 283 275" fill="none" xmlns="http://www.w3.org/2000/svg">
<path d="M150.871 274.66C149.803 274.927 149.135 274.259 148.868 272.656C148.334 271.054 148.334 270.119 148.868 269.852C172.107 262.907 190.671 253.691 204.561 242.205C218.718 230.719 229.269 218.566 236.214 205.744C243.159 192.923 247.566 181.036 249.436 170.085C250.772 162.071 250.772 154.325 249.436 146.846C248.368 139.099 245.296 132.822 240.221 128.014C235.413 122.939 227.8 120.402 217.383 120.402C214.711 120.402 211.773 120.669 208.568 121.203C205.63 121.737 202.424 122.405 198.952 123.206C198.15 123.473 197.483 122.672 196.948 120.802C196.414 118.932 196.548 117.864 197.349 117.597C218.184 112.255 233.409 104.642 243.025 94.7586C252.642 84.6083 258.785 71.5197 261.456 55.4929C263.86 42.6714 263.059 32.254 259.052 24.2406C255.313 16.2272 247.566 12.2205 235.813 12.2205C225.129 12.2205 215.513 16.0936 206.965 23.8399C198.417 31.3191 190.671 43.7399 183.726 61.1023C183.192 61.9036 182.124 62.0372 180.521 61.5029C179.185 60.7016 178.651 59.9002 178.918 59.0989L202.958 0.601004C203.493 -0.200335 204.428 -0.200335 205.763 0.601004C207.099 1.13523 207.499 1.93658 206.965 3.00504C205.095 7.27886 204.695 10.0835 205.763 11.4191C207.099 12.4876 208.568 13.0218 210.17 13.0218C213.91 13.0218 219.119 11.5527 225.797 8.61442C232.474 5.67616 239.954 4.20705 248.234 4.20705C257.583 4.20705 264.929 6.4775 270.271 11.0184C275.88 15.2923 279.62 21.0352 281.49 28.2473C283.36 35.1922 283.493 42.805 281.891 51.0855C280.288 60.7016 276.682 70.0506 271.072 79.1324C265.463 88.2143 258.251 96.0942 249.436 102.772C240.889 109.45 231.139 113.991 220.187 116.395L227.399 111.587C239.954 111.587 249.703 114.391 256.648 120.001C263.86 125.343 268.668 132.422 271.072 141.236C273.744 149.784 274.144 158.999 272.274 168.883C270.138 181.17 264.127 194.125 254.244 207.748C244.628 221.371 231.272 234.058 214.177 245.811C197.082 257.832 175.98 267.448 150.871 274.66Z" fill="white"/>
<path d="M60.5013 169.284C46.6113 169.284 34.7248 165.677 24.8416 158.465C14.9584 151.253 7.87986 141.37 3.60604 128.816C-0.40067 116.261 -1.06846 101.837 1.60268 85.5434C4.54093 69.5166 10.2839 55.4931 18.8315 43.4729C27.3792 31.1857 37.7966 21.5696 50.0838 14.6247C62.6382 7.67971 75.9939 4.20724 90.1509 4.20724C104.308 4.20724 116.194 7.81327 125.811 15.0253C135.427 21.9703 142.238 31.72 146.245 44.2743C150.519 56.5615 151.186 70.7185 148.248 86.7454C145.577 102.772 139.968 117.063 131.42 129.617C122.872 141.904 112.455 151.654 100.168 158.866C87.8804 165.811 74.6583 169.284 60.5013 169.284ZM65.71 164.475C76.3945 164.475 85.7435 161.404 93.7569 155.26C101.77 149.116 108.448 140.569 113.79 129.617C119.133 118.398 123.006 105.71 125.41 91.5534C128.615 72.5884 128.749 57.0958 125.811 45.0756C123.139 32.7884 118.198 23.7065 110.986 17.83C104.041 11.9535 95.7603 9.01529 86.1442 9.01529C70.3845 9.01529 57.0288 15.9602 46.0771 29.8502C35.1255 43.7401 27.7798 61.236 24.0402 82.338C21.3691 97.8306 21.2355 111.854 23.6396 124.408C26.0436 136.696 30.7181 146.445 37.663 153.657C44.8751 160.869 54.2241 164.475 65.71 164.475Z" fill="white"/>
</svg>
