<svg width="292" height="170" viewBox="0 0 292 170" fill="none" xmlns="http://www.w3.org/2000/svg">
<path d="M164.51 159.181C181.072 146.893 195.498 135.673 207.786 125.522C220.074 115.103 230.493 105.486 239.041 96.6708C247.59 87.8552 254.268 79.5739 259.077 71.8269C263.885 63.8127 266.824 55.9321 267.892 48.1851C269.762 37.7667 268.293 29.3519 263.484 22.9405C258.676 16.2621 251.463 12.9228 241.846 12.9228C231.962 12.9228 222.879 17.0635 214.598 25.3448C206.584 33.3589 199.104 45.3802 192.158 61.4085C191.891 62.477 190.956 62.7442 189.353 62.2099C187.751 61.6756 187.083 60.8742 187.35 59.8056L210.19 0.901598C210.725 0.100177 211.526 -0.166964 212.595 0.100179C213.93 0.367314 214.465 1.03516 214.197 2.10372C212.862 6.37794 212.595 9.18289 213.396 10.5186C214.465 11.8543 215.8 12.5221 217.403 12.5221C221.143 12.5221 226.219 11.32 232.63 8.91575C239.308 6.24437 246.788 4.90868 255.07 4.90868C266.824 4.90868 275.639 8.64861 281.516 16.1285C287.66 23.6084 289.53 33.6261 287.126 46.1816C285.79 52.8601 283.119 59.6721 279.112 66.6177C275.372 73.2961 269.762 80.5089 262.282 88.2559C255.07 95.7358 245.72 104.284 234.233 113.901C222.746 123.251 208.721 134.07 192.158 146.359C191.09 146.893 190.689 147.427 190.956 147.961C191.491 148.229 192.158 148.362 192.96 148.362C211.927 148.362 227.02 148.229 238.24 147.961C249.46 147.427 258.142 146.359 264.286 144.756C270.697 142.886 275.372 140.081 278.311 136.341C281.516 132.334 284.321 126.991 286.725 120.313C287.26 119.244 288.195 118.977 289.53 119.511C291.133 119.778 291.801 120.446 291.534 121.515L279.913 161.185C279.646 161.986 279.112 162.788 278.311 163.589C277.776 164.39 276.975 164.791 275.906 164.791C258.81 164.791 240.644 164.791 221.41 164.791C202.443 164.791 184.144 164.791 166.513 164.791C165.445 164.791 164.51 164.123 163.708 162.788C163.174 161.452 163.441 160.25 164.51 159.181Z" fill="white"/>
<path d="M60.5069 170C46.6157 170 34.728 166.394 24.8439 159.181C14.9598 151.968 7.88059 142.084 3.60637 129.529C-0.400707 116.973 -1.06855 102.548 1.60283 86.2523C4.54136 70.224 10.2848 56.1992 18.8333 44.1779C27.3817 31.8896 37.8001 22.2726 50.0885 15.327C62.644 8.38137 76.0009 4.90857 90.1593 4.90857C104.318 4.90857 116.205 8.51494 125.822 15.7277C135.439 22.6733 142.251 32.4238 146.258 44.9794C150.533 57.2677 151.2 71.4261 148.262 87.4544C145.591 103.483 139.981 117.775 131.432 130.33C122.884 142.619 112.465 152.369 100.177 159.582C87.8886 166.527 74.6652 170 60.5069 170ZM65.7161 165.192C76.4016 165.192 85.7515 162.12 93.7656 155.975C101.78 149.831 108.458 141.283 113.801 130.33C119.144 119.11 123.017 106.421 125.422 92.2629C128.627 73.2961 128.761 57.802 125.822 45.7808C123.151 33.4924 118.209 24.4097 110.996 18.5326C104.05 12.6556 95.7692 9.71707 86.1522 9.71707C70.391 9.71707 57.0341 16.6627 46.0814 30.5539C35.1287 44.4451 27.7824 61.9427 24.0425 83.0466C21.3711 98.5406 21.2375 112.565 23.6418 125.121C26.046 137.409 30.7209 147.16 37.6665 154.373C44.8793 161.585 54.2291 165.192 65.7161 165.192Z" fill="white"/>
</svg>
