<svg width="260" height="165" viewBox="0 0 260 165" fill="none" xmlns="http://www.w3.org/2000/svg">
<path d="M168.423 159.794C167.355 159.794 166.821 158.993 166.821 157.391C166.821 155.789 167.355 154.988 168.423 154.988C178.302 154.988 185.911 154.321 191.251 152.986C196.591 151.651 200.462 148.981 202.865 144.976C205.535 140.971 207.537 135.097 208.872 127.355L222.489 52.0634C224.358 40.8498 225.025 33.107 224.491 28.8352C223.957 24.2963 221.154 22.5609 216.081 23.6289C211.008 24.6968 202.465 28.0342 190.45 33.641C189.382 34.175 188.581 33.7745 188.047 32.4395C187.513 30.8376 187.78 29.9031 188.848 29.6362L245.717 1.60214C246.518 1.06816 247.319 1.06816 248.12 1.60214C248.921 2.13612 249.054 2.6701 248.52 3.20407L226.494 127.355C225.159 135.097 224.892 140.971 225.693 144.976C226.761 148.981 229.831 151.651 234.904 152.986C239.977 154.321 247.719 154.988 258.132 154.988C258.933 154.988 259.334 155.789 259.334 157.391C259.334 158.993 258.933 159.794 258.132 159.794C251.991 159.794 245.183 159.661 237.707 159.394C230.232 159.127 222.222 158.993 213.678 158.993C205.401 158.993 197.258 159.127 189.249 159.394C181.506 159.661 174.564 159.794 168.423 159.794Z" fill="white"/>
<path d="M60.4734 165C46.5899 165 34.7088 161.396 24.8301 154.187C14.9515 146.978 7.87622 137.1 3.60437 124.551C-0.400485 112.003 -1.06796 97.5851 1.60194 81.2987C4.53884 65.2792 10.2791 51.2622 18.8228 39.2476C27.3665 26.9661 37.7792 17.3544 50.0607 10.4126C62.6093 3.47087 75.9588 0 90.1093 0C104.26 0 116.141 3.60437 125.753 10.8131C135.364 17.7549 142.173 27.5 146.177 40.0486C150.449 52.3302 151.117 66.4807 148.18 82.5001C145.51 98.5195 139.903 112.804 131.359 125.352C122.816 137.634 112.403 147.379 100.121 154.588C87.8399 161.529 74.6239 165 60.4734 165ZM65.6797 160.194C76.3593 160.194 85.704 157.124 93.7137 150.983C101.723 144.842 108.398 136.299 113.738 125.352C119.078 114.139 122.949 101.456 125.352 87.3059C128.556 68.3496 128.689 52.8641 125.753 40.8496C123.083 28.568 118.143 19.4903 110.935 13.6165C103.993 7.74273 95.7161 4.80583 86.1045 4.80583C70.352 4.80583 57.0025 11.7476 46.0559 25.6311C35.1093 39.5146 27.767 57.0025 24.0292 78.0948C21.3592 93.5802 21.2258 107.597 23.6287 120.146C26.0316 132.427 30.7039 142.173 37.6457 149.381C44.8544 156.59 54.1991 160.194 65.6797 160.194Z" fill="white"/>
</svg>
